<svg width="790" height="226" viewBox="0 0 790 226" fill="none" xmlns="http://www.w3.org/2000/svg">
<path d="M47.2168 60.0283C73.1047 60.0283 90.5261 76.31 90.5261 101.547C90.5261 126.783 73.1047 143.065 47.2168 143.065H34.3543C33.703 143.065 33.3774 143.39 33.3774 144.042V172.046C33.3774 173.186 32.5633 174 31.4236 174H15.4676C14.3279 174 13.5138 173.186 13.5138 172.046V61.9821C13.5138 60.8424 14.3279 60.0283 15.4676 60.0283H47.2168ZM33.3774 123.201C33.3774 123.852 33.703 124.178 34.3543 124.178H45.5887C61.2191 124.178 69.6855 115.874 69.6855 101.547C69.6855 87.2187 61.2191 78.9151 45.5887 78.9151H34.3543C33.8659 78.9151 33.3774 79.2407 33.3774 79.892V123.201ZM128.498 172.046C128.498 173.186 127.684 174 126.544 174H110.588C109.448 174 108.634 173.186 108.634 172.046V61.9821C108.634 60.8424 109.448 60.0283 110.588 60.0283H145.431C170.016 60.0283 189.066 75.0075 189.066 100.407C189.066 118.317 179.622 130.854 165.295 136.552C164.155 137.041 163.992 137.855 164.643 138.669L189.066 171.558C190.043 172.86 189.554 174 187.926 174H168.388C166.434 174 165.62 173.674 164.48 171.883L143.477 142.414C142.5 141.111 141.849 140.785 140.384 140.785H129.475C128.986 140.785 128.498 141.111 128.498 141.762V172.046ZM129.475 78.9151C128.824 78.9151 128.498 79.2407 128.498 79.892V120.922C128.498 121.41 128.824 121.899 129.475 121.899H144.291C157.642 121.899 168.225 114.898 168.225 100.407C168.225 85.9162 157.642 78.9151 144.291 78.9151H129.475ZM264.461 177.094C230.921 177.094 204.708 151.694 204.708 117.014C204.708 82.3342 230.921 56.9348 264.461 56.9348C298.002 56.9348 324.215 82.3342 324.215 117.014C324.215 151.694 298.002 177.094 264.461 177.094ZM264.461 157.23C287.418 157.23 303.212 139.483 303.212 117.014C303.212 94.5455 287.418 76.7985 264.461 76.7985C241.504 76.7985 225.711 94.5455 225.711 117.014C225.711 139.483 241.504 157.23 264.461 157.23ZM360.685 177.094C345.543 177.094 333.657 169.116 329.587 155.439C329.261 154.299 329.749 153.485 330.889 152.997L345.543 147.787C346.682 147.298 347.497 147.787 347.985 149.089C350.102 154.788 354.66 157.718 360.196 157.718C367.523 157.718 373.222 153.159 373.222 141.111V61.9821C373.222 60.8424 374.036 60.0283 375.175 60.0283H391.131C392.271 60.0283 393.085 60.8424 393.085 61.9821V142.576C393.085 163.091 380.06 177.094 360.685 177.094ZM420.867 61.9821C420.867 60.8424 421.681 60.0283 422.821 60.0283H481.923C483.063 60.0283 483.877 60.8424 483.877 61.9821V76.9613C483.877 78.101 483.063 78.9151 481.923 78.9151H441.708C441.219 78.9151 440.731 79.2407 440.731 79.892V106.105C440.731 106.757 441.056 107.082 441.708 107.082H481.923C483.063 107.082 483.877 107.896 483.877 109.036V123.852C483.877 124.992 483.063 125.806 481.923 125.806H441.708C441.219 125.806 440.731 126.132 440.731 126.783V154.136C440.731 154.625 441.056 155.113 441.708 155.113H481.923C483.063 155.113 483.877 155.927 483.877 157.067V172.046C483.877 173.186 483.063 174 481.923 174H422.821C421.681 174 420.867 173.186 420.867 172.046V61.9821ZM559.166 177.094C526.114 177.094 501.04 152.834 501.04 117.014C501.04 81.1945 526.114 56.9348 559.166 56.9348C581.146 56.9348 599.87 67.3551 609.151 84.6137C609.639 85.5906 609.476 86.4046 608.499 87.0559L594.823 96.3365C593.846 96.9877 592.706 96.8249 592.055 95.6852C585.542 83.4739 573.819 76.7985 559.166 76.7985C536.86 76.7985 522.044 93.4058 522.044 117.014C522.044 140.623 536.86 157.23 559.166 157.23C573.819 157.23 585.542 150.554 592.055 138.343C592.706 137.203 593.846 137.041 594.823 137.692L608.499 146.972C609.476 147.624 609.639 148.438 609.151 149.415C599.87 166.673 581.146 177.094 559.166 177.094ZM694.535 60.0283C695.675 60.0283 696.489 60.8424 696.489 61.9821V76.9613C696.489 78.101 695.675 78.9151 694.535 78.9151H668.159C667.508 78.9151 667.182 79.2407 667.182 79.892V172.046C667.182 173.186 666.368 174 665.228 174H649.272C648.132 174 647.318 173.186 647.318 172.046V79.892C647.318 79.4035 646.993 78.9151 646.341 78.9151H619.965C618.825 78.9151 618.011 78.101 618.011 76.9613V61.9821C618.011 60.8424 618.825 60.0283 619.965 60.0283H694.535ZM743.846 177.094C725.936 177.094 711.608 167.325 705.584 151.368C705.095 150.229 705.584 149.415 706.723 148.926L721.865 142.739C723.005 142.251 723.982 142.739 724.308 143.879C727.238 152.834 734.565 157.393 743.846 157.393C755.568 157.393 761.755 151.206 761.755 142.414C761.755 133.133 756.057 128.249 745.962 126.295L737.821 124.829C720.074 121.573 708.026 109.362 708.026 90.9635C708.026 72.8909 722.517 57.0976 744.823 57.0976C761.755 57.0976 774.455 66.3782 780.317 80.2176C780.805 81.3573 780.317 82.1714 779.177 82.6599L764.035 88.6841C762.895 89.1725 762.081 88.8469 761.593 87.7072C758.499 80.5432 752.312 75.9844 744.66 75.9844C734.728 75.9844 728.867 82.1714 728.867 90.3122C728.867 97.3134 733.588 102.686 742.38 104.477L750.684 105.943C767.128 109.036 782.759 119.782 782.759 140.948C782.759 160.486 768.268 177.094 743.846 177.094Z" fill="white"/>
</svg>
