<svg width="110" height="65" viewBox="0 0 110 65" fill="none" xmlns="http://www.w3.org/2000/svg">
<g clip-path="url(#clip0_15_151)">
<path d="M43.4399 28.7592C43.2968 28.4203 43.101 28.1266 42.8449 27.8805C42.5926 27.6345 42.2876 27.4437 41.9361 27.3032C41.5809 27.1663 41.1918 27.0986 40.7713 27.0986H38.7517V32.7946H40.0671C40.5793 32.7946 41.0587 32.7294 41.4956 32.5926C41.9361 32.4595 42.3127 32.2649 42.634 32.0114C42.9516 31.7591 43.2014 31.4516 43.3821 31.0888C43.5629 30.7261 43.6557 30.3232 43.6557 29.8763C43.6557 29.4696 43.5842 29.0968 43.4399 28.7592ZM43.4399 28.7592C43.2968 28.4203 43.101 28.1266 42.8449 27.8805C42.5926 27.6345 42.2876 27.4437 41.9361 27.3032C41.5809 27.1663 41.1918 27.0986 40.7713 27.0986H38.7517V32.7946H40.0671C40.5793 32.7946 41.0587 32.7294 41.4956 32.5926C41.9361 32.4595 42.3127 32.2649 42.634 32.0114C42.9516 31.7591 43.2014 31.4516 43.3821 31.0888C43.5629 30.7261 43.6557 30.3232 43.6557 29.8763C43.6557 29.4696 43.5842 29.0968 43.4399 28.7592ZM52.8651 34.459H57.8947L55.4169 29.0604L52.8639 34.459H52.8651ZM32.0063 0.649048C14.3281 0.649048 0 14.9809 0 32.6578C0 50.3348 14.3281 64.6641 32.0063 64.6641C49.6845 64.6641 64.015 50.336 64.015 32.6578C64.015 14.9796 49.6832 0.649048 32.0063 0.649048ZM10.737 37.828C10.5286 38.3024 10.2211 38.7204 9.81439 39.0719C9.4077 39.4271 8.89558 39.707 8.28053 39.9154C7.66549 40.12 6.95505 40.2267 6.14419 40.2267C5.49149 40.2267 4.90405 40.1514 4.3844 40.0083C3.86475 39.8614 3.41037 39.653 3.01749 39.3794C2.62462 39.1058 2.28948 38.7706 2.00957 38.3752C1.72966 37.9786 1.49745 37.528 1.31294 37.0184L2.54679 36.5125C2.83047 37.4113 3.30493 38.1079 3.97144 38.6037C4.63795 39.102 5.41994 39.348 6.31866 39.348C6.65756 39.348 6.99145 39.3041 7.32282 39.2112C7.65043 39.1196 7.94414 38.9828 8.20397 38.8008C8.46003 38.62 8.66839 38.3978 8.82529 38.1305C8.98219 37.8644 9.06127 37.5594 9.06127 37.2142C9.06127 36.7975 8.95583 36.4284 8.73994 36.0996C8.52404 35.7707 8.24162 35.4707 7.89268 35.1971C7.54122 34.9272 7.14082 34.6712 6.69271 34.4314C6.24209 34.1917 5.78018 33.9532 5.30572 33.7109C4.83376 33.4687 4.37311 33.2151 3.92124 32.949C3.47313 32.6829 3.07398 32.3892 2.72127 32.0679C2.37232 31.7428 2.08865 31.3813 1.87401 30.9809C1.65812 30.5805 1.54891 30.1198 1.54891 29.5964C1.54891 29.073 1.64807 28.5885 1.84639 28.1441C2.04095 27.696 2.32839 27.3107 2.71123 26.9793C3.09029 26.6479 3.55848 26.3919 4.11202 26.2074C4.66557 26.0229 5.3007 25.93 6.0149 25.93C7.3065 25.93 8.32823 26.1998 9.08009 26.7433C9.82819 27.2831 10.3679 28.0663 10.6993 29.0906L9.52067 29.6303C9.38385 29.2098 9.20938 28.8245 8.99725 28.4793C8.78512 28.1303 8.53283 27.8366 8.23535 27.5906C7.93787 27.3446 7.60022 27.1538 7.21362 27.0195C6.83078 26.8827 6.39648 26.8174 5.91198 26.8174C5.48144 26.8174 5.10238 26.8751 4.78104 26.9956C4.45595 27.1149 4.18985 27.273 3.97521 27.4676C3.7568 27.6659 3.59614 27.8843 3.48945 28.1303C3.38025 28.3801 3.32502 28.6286 3.32502 28.8822C3.32502 29.2449 3.43422 29.5726 3.65639 29.87C3.87479 30.1637 4.166 30.4437 4.53126 30.711C4.89652 30.9771 5.31074 31.2344 5.7714 31.4805C6.23331 31.7265 6.70401 31.9763 7.186 32.2285C7.66423 32.4808 8.13619 32.7482 8.59684 33.0243C9.05876 33.3017 9.47172 33.6017 9.83698 33.9293C10.2022 34.2569 10.496 34.6122 10.7156 35.0025C10.934 35.3916 11.0432 35.8222 11.0432 36.3017C11.0432 36.8376 10.9403 37.3472 10.7319 37.8255L10.737 37.828ZM22.5986 27.1186H15.9423V32.0127H20.7534V32.8875H15.9423V39.9028H13.6465V26.2438H22.5998V27.1186H22.5986ZM33.9066 27.1186H26.7068V32.0127H31.518V32.8875H26.7068V39.028H33.9066V39.9028H24.4098V26.2438H33.9066V27.1186ZM45.098 39.9028L40.3546 33.4787H38.7517V39.9028H36.4559V26.2438H41.1755C41.9951 26.2438 42.7206 26.3329 43.3382 26.5074C43.957 26.6856 44.4729 26.9316 44.8896 27.2454C45.3026 27.563 45.6176 27.9395 45.8222 28.3763C46.0306 28.8169 46.1335 29.2926 46.1335 29.8085C46.1335 30.2328 46.0544 30.6282 45.8938 30.9972C45.7293 31.3662 45.5009 31.6976 45.2072 31.9951C44.9097 32.2888 44.5545 32.5486 44.144 32.767C43.7336 32.9854 43.2792 33.1536 42.7872 33.2691L47.7628 39.9016H45.0967L45.098 39.9028ZM58.3127 35.3477H52.4622L50.3058 39.9028H49.151L55.7395 25.9337H56.3069L62.731 39.9028H60.4001L58.3127 35.3477ZM43.3834 31.0901C43.5641 30.7273 43.657 30.3244 43.657 29.8776C43.657 29.4709 43.5855 29.0981 43.4411 28.7604C43.298 28.4215 43.1022 28.1278 42.8461 27.8818C42.5939 27.6358 42.2888 27.445 41.9374 27.3044C41.5822 27.1676 41.1931 27.0998 40.7726 27.0998H38.7529V32.7959H40.0684C40.5805 32.7959 41.06 32.7306 41.4968 32.5938C41.9374 32.4608 42.3139 32.2662 42.6353 32.0127C42.9528 31.7604 43.2026 31.4528 43.3834 31.0901Z" fill="#C91C2D"/>
<path d="M74.5575 26.5613V25.6664H65.3958V39.6468H67.7468V32.467H72.6672V31.5683H67.7468V26.5626H74.5575V26.5613Z" fill="#C91C2D"/>
<path d="M77.0967 25.6664V39.6468H79.4477V25.6664H77.0967Z" fill="#C91C2D"/>
<path d="M84.6203 38.748V25.6664H82.2693V39.6468H91.6456V38.748H84.6203Z" fill="#C91C2D"/>
<path d="M106.891 25.6664L101.554 36.3996H101.449L96.0049 25.6664H93.6063V39.6468H94.6343V28.2747H94.7987L100.598 39.6468H101.083L106.807 28.1918H106.893V39.6468H109.254V25.6664H106.893H106.891Z" fill="#C91C2D"/>
</g>
<defs>
<clipPath id="clip0_15_151">
<rect width="109.252" height="64.015" fill="white" transform="translate(0 0.649048)"/>
</clipPath>
</defs>
</svg>
