<svg width="526" height="570" viewBox="0 0 526 570" fill="none" xmlns="http://www.w3.org/2000/svg">
<path d="M63.2664 4.02834C64.8945 4.02834 65.8714 4.51679 66.3599 6.47058L97.7835 116.046C98.1091 117.349 97.4579 118 96.1553 118H79.2224C78.2455 118 77.4314 117.512 77.1058 116.535L71.4072 96.3454C71.0816 95.2057 70.5931 94.88 69.779 94.88H28.4236C27.6095 94.88 27.1211 95.2057 26.7954 96.3454L21.0969 116.535C20.7712 117.512 19.9571 118 18.9802 118H2.04732C0.744783 118 0.0935166 117.349 0.41915 116.046L31.8428 6.47058C32.3312 4.51679 33.3081 4.02834 34.9363 4.02834H63.2664ZM32.8197 75.0164C32.6568 75.8305 32.9825 76.1561 33.6337 76.1561H64.5689C65.2202 76.1561 65.5458 75.8305 65.383 75.0164L50.8923 24.0548C50.7295 23.4035 50.4039 23.0779 49.9154 23.0779H48.2872C47.7988 23.0779 47.4732 23.4035 47.3103 24.0548L32.8197 75.0164ZM118.237 118C117.098 118 116.446 117.186 116.446 116.046V5.98214C116.446 4.84242 117.098 4.02834 118.237 4.02834H155.522C177.665 4.02834 189.714 17.3793 189.714 34.8007C189.714 45.3838 184.829 53.5246 177.34 58.2463C176.2 58.8976 176.363 59.7116 177.503 60.3629C186.132 65.0846 191.83 74.0395 191.83 85.9251C191.83 104.161 179.782 118 156.988 118H118.237ZM137.287 22.9151C136.636 22.9151 136.31 23.2407 136.31 23.892V50.2683C136.31 50.9195 136.636 51.2452 137.287 51.2452H152.917C163.175 51.2452 168.873 45.5466 168.873 37.0801C168.873 28.6137 163.175 22.9151 152.917 22.9151H137.287ZM137.287 69.8063C136.636 69.8063 136.31 70.1319 136.31 70.7832V98.1364C136.31 98.6248 136.636 99.1133 137.287 99.1133H154.545C165.129 99.1133 170.99 93.0891 170.99 84.4598C170.99 75.8305 165.129 69.8063 154.545 69.8063H137.287ZM267.98 121.094C234.44 121.094 208.227 95.6941 208.227 61.0142C208.227 26.3342 234.44 0.934822 267.98 0.934822C301.521 0.934822 327.734 26.3342 327.734 61.0142C327.734 95.6941 301.521 121.094 267.98 121.094ZM267.98 101.23C290.937 101.23 306.731 83.4829 306.731 61.0142C306.731 38.5455 290.937 20.7985 267.98 20.7985C245.023 20.7985 229.23 38.5455 229.23 61.0142C229.23 83.4829 245.023 101.23 267.98 101.23ZM389.19 121.094C364.279 121.094 348.323 104.323 348.323 77.9471V5.98214C348.323 4.84242 349.137 4.02834 350.277 4.02834H366.233C367.372 4.02834 368.186 4.84242 368.186 5.98214V76.4818C368.186 93.2519 375.839 101.718 389.19 101.718C402.541 101.718 410.193 93.2519 410.193 76.4818V5.98214C410.193 4.84242 411.007 4.02834 412.147 4.02834H428.103C429.243 4.02834 430.057 4.84242 430.057 5.98214V77.9471C430.057 104.323 414.101 121.094 389.19 121.094ZM523.554 4.02834C524.694 4.02834 525.508 4.84242 525.508 5.98214V20.9613C525.508 22.101 524.694 22.9151 523.554 22.9151H497.178C496.527 22.9151 496.201 23.2407 496.201 23.892V116.046C496.201 117.186 495.387 118 494.247 118H478.291C477.151 118 476.337 117.186 476.337 116.046V23.892C476.337 23.4035 476.012 22.9151 475.36 22.9151H448.984C447.844 22.9151 447.03 22.101 447.03 20.9613V5.98214C447.03 4.84242 447.844 4.02834 448.984 4.02834H523.554Z" fill="white"/>
<path d="M41.6118 347.094C23.7019 347.094 9.37407 337.325 3.34985 321.368C2.8614 320.229 3.34985 319.415 4.48957 318.926L19.6315 312.739C20.7712 312.251 21.7481 312.739 22.0738 313.879C25.0045 322.834 32.3312 327.393 41.6118 327.393C53.3346 327.393 59.5216 321.206 59.5216 312.414C59.5216 303.133 53.823 298.249 43.7284 296.295L35.5875 294.829C17.8405 291.573 5.7921 279.362 5.7921 260.964C5.7921 242.891 20.2828 227.098 42.5887 227.098C59.5216 227.098 72.2213 236.378 78.0827 250.218C78.5711 251.357 78.0827 252.171 76.943 252.66L61.801 258.684C60.6613 259.173 59.8472 258.847 59.3588 257.707C56.2653 250.543 50.0782 245.984 42.4258 245.984C32.494 245.984 26.6326 252.171 26.6326 260.312C26.6326 267.313 31.3543 272.686 40.1464 274.477L48.4501 275.943C64.8945 279.036 80.5249 289.782 80.5249 310.948C80.5249 330.486 66.0343 347.094 41.6118 347.094ZM161.061 230.028C162.2 230.028 163.014 230.842 163.014 231.982V246.961C163.014 248.101 162.2 248.915 161.061 248.915H123.613C123.124 248.915 122.636 249.241 122.636 249.892V277.408C122.636 277.896 122.962 278.385 123.613 278.385H161.061C162.2 278.385 163.014 279.199 163.014 280.339V295.318C163.014 296.458 162.2 297.272 161.061 297.272H123.613C123.124 297.272 122.636 297.597 122.636 298.249V342.046C122.636 343.186 121.822 344 120.682 344H104.726C103.586 344 102.772 343.186 102.772 342.046V231.982C102.772 230.842 103.586 230.028 104.726 230.028H161.061ZM185.809 231.982C185.809 230.842 186.623 230.028 187.763 230.028H246.865C248.005 230.028 248.819 230.842 248.819 231.982V246.961C248.819 248.101 248.005 248.915 246.865 248.915H206.649C206.161 248.915 205.672 249.241 205.672 249.892V276.105C205.672 276.757 205.998 277.082 206.649 277.082H246.865C248.005 277.082 248.819 277.896 248.819 279.036V293.852C248.819 294.992 248.005 295.806 246.865 295.806H206.649C206.161 295.806 205.672 296.132 205.672 296.783V324.136C205.672 324.625 205.998 325.113 206.649 325.113H246.865C248.005 325.113 248.819 325.927 248.819 327.067V342.046C248.819 343.186 248.005 344 246.865 344H187.763C186.623 344 185.809 343.186 185.809 342.046V231.982ZM293.797 342.046C293.797 343.186 292.983 344 291.843 344H275.887C274.747 344 273.933 343.186 273.933 342.046V231.982C273.933 230.842 274.747 230.028 275.887 230.028H310.73C335.315 230.028 354.365 245.007 354.365 270.407C354.365 288.317 344.921 300.854 330.594 306.552C329.454 307.041 329.291 307.855 329.942 308.669L354.365 341.558C355.342 342.86 354.853 344 353.225 344H333.687C331.733 344 330.919 343.674 329.779 341.883L308.776 312.414C307.799 311.111 307.148 310.785 305.683 310.785H294.774C294.285 310.785 293.797 311.111 293.797 311.762V342.046ZM294.774 248.915C294.123 248.915 293.797 249.241 293.797 249.892V290.922C293.797 291.41 294.123 291.899 294.774 291.899H309.59C322.941 291.899 333.524 284.898 333.524 270.407C333.524 255.916 322.941 248.915 309.59 248.915H294.774ZM428.484 230.028C430.113 230.028 431.09 230.517 431.578 232.471L463.002 342.046C463.327 343.349 462.676 344 461.373 344H444.441C443.464 344 442.65 343.512 442.324 342.535L436.625 322.345C436.3 321.206 435.811 320.88 434.997 320.88H393.642C392.828 320.88 392.339 321.206 392.014 322.345L386.315 342.535C385.989 343.512 385.175 344 384.198 344H367.265C365.963 344 365.312 343.349 365.637 342.046L397.061 232.471C397.549 230.517 398.526 230.028 400.154 230.028H428.484ZM398.038 301.016C397.875 301.83 398.201 302.156 398.852 302.156H429.787C430.438 302.156 430.764 301.83 430.601 301.016L416.11 250.055C415.948 249.404 415.622 249.078 415.134 249.078H413.505C413.017 249.078 412.691 249.404 412.528 250.055L398.038 301.016ZM68.8021 456.028C69.9419 456.028 70.7559 456.842 70.7559 457.982V472.961C70.7559 474.101 69.9419 474.915 68.8021 474.915H31.3543C30.8659 474.915 30.3774 475.241 30.3774 475.892V503.408C30.3774 503.896 30.703 504.385 31.3543 504.385H68.8021C69.9419 504.385 70.7559 505.199 70.7559 506.339V521.318C70.7559 522.458 69.9419 523.272 68.8021 523.272H31.3543C30.8659 523.272 30.3774 523.597 30.3774 524.249V568.046C30.3774 569.186 29.5633 570 28.4236 570H12.4676C11.3279 570 10.5138 569.186 10.5138 568.046V457.982C10.5138 456.842 11.3279 456.028 12.4676 456.028H68.8021ZM111.46 456.028C112.6 456.028 113.414 456.842 113.414 457.982V568.046C113.414 569.186 112.6 570 111.46 570H95.5041C94.3644 570 93.5503 569.186 93.5503 568.046V457.982C93.5503 456.842 94.3644 456.028 95.5041 456.028H111.46ZM142.243 457.982C142.243 456.842 143.057 456.028 144.196 456.028H160.152C161.292 456.028 162.106 456.842 162.106 457.982V550.136C162.106 550.625 162.432 551.113 163.083 551.113H199.554C200.694 551.113 201.508 551.927 201.508 553.067V568.046C201.508 569.186 200.694 570 199.554 570H144.196C143.057 570 142.243 569.186 142.243 568.046V457.982ZM221.664 570C220.524 570 219.873 569.186 219.873 568.209V457.819C219.873 456.842 220.524 456.028 221.664 456.028H241.202C242.179 456.028 242.993 456.517 243.482 457.331L269.858 502.268C270.672 503.571 270.998 503.571 271.812 502.268L298.188 457.331C298.676 456.517 299.49 456.028 300.467 456.028H320.005C321.145 456.028 321.796 456.842 321.796 457.819V568.209C321.796 569.186 321.145 570 320.005 570H303.724C302.584 570 301.933 569.186 301.933 568.209V491.522C301.933 490.545 301.119 490.057 300.467 491.197L273.277 534.832C271.812 537.111 269.858 537.111 268.392 534.832L241.202 491.197C240.551 490.057 239.737 490.545 239.737 491.522V568.209C239.737 569.186 239.085 570 237.946 570H221.664Z" fill="#C91C2D"/>
</svg>
