<svg width="785" height="226" viewBox="0 0 785 226" fill="none" xmlns="http://www.w3.org/2000/svg">
<path d="M66.4292 177.094C32.889 177.094 6.67548 151.694 6.67548 117.014C6.67548 82.3342 32.889 56.9348 66.4292 56.9348C99.9694 56.9348 126.183 82.3342 126.183 117.014C126.183 151.694 99.9694 177.094 66.4292 177.094ZM66.4292 157.23C89.3863 157.23 105.18 139.483 105.18 117.014C105.18 94.5455 89.3863 76.7985 66.4292 76.7985C43.472 76.7985 27.6788 94.5455 27.6788 117.014C27.6788 139.483 43.472 157.23 66.4292 157.23ZM187.639 177.094C162.728 177.094 146.772 160.323 146.772 133.947V61.9821C146.772 60.8424 147.586 60.0283 148.725 60.0283H164.681C165.821 60.0283 166.635 60.8424 166.635 61.9821V132.482C166.635 149.252 174.288 157.718 187.639 157.718C200.99 157.718 208.642 149.252 208.642 132.482V61.9821C208.642 60.8424 209.456 60.0283 210.596 60.0283H226.552C227.691 60.0283 228.506 60.8424 228.506 61.9821V133.947C228.506 160.323 212.55 177.094 187.639 177.094ZM276.089 172.046C276.089 173.186 275.275 174 274.135 174H258.179C257.039 174 256.225 173.186 256.225 172.046V61.9821C256.225 60.8424 257.039 60.0283 258.179 60.0283H293.022C317.607 60.0283 336.657 75.0075 336.657 100.407C336.657 118.317 327.213 130.854 312.885 136.552C311.746 137.041 311.583 137.855 312.234 138.669L336.657 171.558C337.633 172.86 337.145 174 335.517 174H315.979C314.025 174 313.211 173.674 312.071 171.883L291.068 142.414C290.091 141.111 289.44 140.785 287.974 140.785H277.066C276.577 140.785 276.089 141.111 276.089 141.762V172.046ZM277.066 78.9151C276.414 78.9151 276.089 79.2407 276.089 79.892V120.922C276.089 121.41 276.414 121.899 277.066 121.899H291.882C305.233 121.899 315.816 114.898 315.816 100.407C315.816 85.9162 305.233 78.9151 291.882 78.9151H277.066ZM455.958 60.0283C457.098 60.0283 457.912 60.8424 457.912 61.9821V76.9613C457.912 78.101 457.098 78.9151 455.958 78.9151H429.582C428.93 78.9151 428.605 79.2407 428.605 79.892V172.046C428.605 173.186 427.791 174 426.651 174H410.695C409.555 174 408.741 173.186 408.741 172.046V79.892C408.741 79.4035 408.415 78.9151 407.764 78.9151H381.388C380.248 78.9151 379.434 78.101 379.434 76.9613V61.9821C379.434 60.8424 380.248 60.0283 381.388 60.0283H455.958ZM475.76 61.9821C475.76 60.8424 476.575 60.0283 477.714 60.0283H536.817C537.956 60.0283 538.77 60.8424 538.77 61.9821V76.9613C538.77 78.101 537.956 78.9151 536.817 78.9151H496.601C496.113 78.9151 495.624 79.2407 495.624 79.892V106.105C495.624 106.757 495.95 107.082 496.601 107.082H536.817C537.956 107.082 538.77 107.896 538.77 109.036V123.852C538.77 124.992 537.956 125.806 536.817 125.806H496.601C496.113 125.806 495.624 126.132 495.624 126.783V154.136C495.624 154.625 495.95 155.113 496.601 155.113H536.817C537.956 155.113 538.77 155.927 538.77 157.067V172.046C538.77 173.186 537.956 174 536.817 174H477.714C476.575 174 475.76 173.186 475.76 172.046V61.9821ZM615.366 60.0283C616.994 60.0283 617.971 60.5168 618.459 62.4706L649.883 172.046C650.208 173.349 649.557 174 648.255 174H631.322C630.345 174 629.531 173.512 629.205 172.535L623.506 152.345C623.181 151.206 622.692 150.88 621.878 150.88H580.523C579.709 150.88 579.22 151.206 578.895 152.345L573.196 172.535C572.87 173.512 572.056 174 571.079 174H554.146C552.844 174 552.193 173.349 552.518 172.046L583.942 62.4706C584.43 60.5168 585.407 60.0283 587.035 60.0283H615.366ZM584.919 131.016C584.756 131.83 585.082 132.156 585.733 132.156H616.668C617.319 132.156 617.645 131.83 617.482 131.016L602.991 80.0548C602.829 79.4035 602.503 79.0779 602.015 79.0779H600.386C599.898 79.0779 599.572 79.4035 599.41 80.0548L584.919 131.016ZM670.337 174C669.197 174 668.546 173.186 668.546 172.209V61.8193C668.546 60.8424 669.197 60.0283 670.337 60.0283H689.875C690.851 60.0283 691.665 60.5168 692.154 61.3309L718.53 106.268C719.344 107.571 719.67 107.571 720.484 106.268L746.86 61.3309C747.349 60.5168 748.163 60.0283 749.14 60.0283H768.678C769.817 60.0283 770.469 60.8424 770.469 61.8193V172.209C770.469 173.186 769.817 174 768.678 174H752.396C751.256 174 750.605 173.186 750.605 172.209V95.5224C750.605 94.5455 749.791 94.057 749.14 95.1967L721.949 138.832C720.484 141.111 718.53 141.111 717.065 138.832L689.875 95.1967C689.223 94.057 688.409 94.5455 688.409 95.5224V172.209C688.409 173.186 687.758 174 686.618 174H670.337Z" fill="white"/>
</svg>
