<svg width="434" height="226" viewBox="0 0 434 226" fill="none" xmlns="http://www.w3.org/2000/svg">
<path d="M79.2917 137.203C79.7802 138.18 80.4314 137.855 80.4314 136.878V61.9821C80.4314 60.8424 81.2455 60.0283 82.3852 60.0283H98.3413C99.481 60.0283 100.295 60.8424 100.295 61.9821V172.046C100.295 173.186 99.481 174 98.3413 174H80.7571C78.9661 174 77.9892 173.512 77.0123 171.883L34.5171 96.8249C34.0287 95.848 33.3774 96.1736 33.3774 97.1505V172.046C33.3774 173.186 32.5633 174 31.4236 174H15.4676C14.3279 174 13.5138 173.186 13.5138 172.046V61.9821C13.5138 60.8424 14.3279 60.0283 15.4676 60.0283H33.0518C34.8428 60.0283 35.8197 60.5168 36.7966 62.145L79.2917 137.203ZM128.986 61.9821C128.986 60.8424 129.8 60.0283 130.94 60.0283H190.043C191.182 60.0283 191.996 60.8424 191.996 61.9821V76.9613C191.996 78.101 191.182 78.9151 190.043 78.9151H149.827C149.338 78.9151 148.85 79.2407 148.85 79.892V106.105C148.85 106.757 149.176 107.082 149.827 107.082H190.043C191.182 107.082 191.996 107.896 191.996 109.036V123.852C191.996 124.992 191.182 125.806 190.043 125.806H149.827C149.338 125.806 148.85 126.132 148.85 126.783V154.136C148.85 154.625 149.176 155.113 149.827 155.113H190.043C191.182 155.113 191.996 155.927 191.996 157.067V172.046C191.996 173.186 191.182 174 190.043 174H130.94C129.8 174 128.986 173.186 128.986 172.046V61.9821ZM232.579 174C231.602 174 230.788 173.512 230.625 172.372L208.156 61.9821C207.993 60.8424 208.644 60.0283 209.784 60.0283H226.88C228.02 60.0283 228.834 60.5168 228.997 61.6565L243.976 140.623C244.138 141.437 244.953 141.437 245.115 140.623L262.862 61.6565C263.025 60.6796 263.676 60.0283 264.816 60.0283H280.447C281.586 60.0283 282.238 60.6796 282.4 61.6565L300.147 140.623C300.31 141.437 301.124 141.437 301.287 140.623L316.266 61.6565C316.429 60.5168 317.243 60.0283 318.383 60.0283H335.479C336.618 60.0283 337.27 60.8424 337.107 61.9821L314.638 172.372C314.475 173.512 313.661 174 312.684 174H291.681C290.704 174 289.89 173.349 289.727 172.372L273.283 100.244C273.12 99.43 272.143 99.43 271.98 100.244L255.536 172.372C255.373 173.349 254.559 174 253.582 174H232.579ZM387.532 177.094C369.622 177.094 355.294 167.325 349.27 151.368C348.781 150.229 349.27 149.415 350.409 148.926L365.551 142.739C366.691 142.251 367.668 142.739 367.994 143.879C370.924 152.834 378.251 157.393 387.532 157.393C399.254 157.393 405.441 151.206 405.441 142.414C405.441 133.133 399.743 128.249 389.648 126.295L381.507 124.829C363.76 121.573 351.712 109.362 351.712 90.9635C351.712 72.8909 366.203 57.0976 388.509 57.0976C405.441 57.0976 418.141 66.3782 424.003 80.2176C424.491 81.3573 424.003 82.1714 422.863 82.6599L407.721 88.6841C406.581 89.1725 405.767 88.8469 405.279 87.7072C402.185 80.5432 395.998 75.9844 388.346 75.9844C378.414 75.9844 372.552 82.1714 372.552 90.3122C372.552 97.3134 377.274 102.686 386.066 104.477L394.37 105.943C410.814 109.036 426.445 119.782 426.445 140.948C426.445 160.486 411.954 177.094 387.532 177.094Z" fill="white"/>
</svg>
