<svg width="698" height="121" viewBox="0 0 698 121" fill="none" xmlns="http://www.w3.org/2000/svg">
<path d="M0.52129 5.84915C0.52129 4.70942 1.33537 3.89534 2.47509 3.89534H18.4311C19.5708 3.89534 20.3849 4.70942 20.3849 5.84915V98.0034C20.3849 98.4918 20.7106 98.9803 21.3618 98.9803H57.8328C58.9725 98.9803 59.7866 99.7944 59.7866 100.934V115.913C59.7866 117.053 58.9725 117.867 57.8328 117.867H2.47509C1.33537 117.867 0.52129 117.053 0.52129 115.913V5.84915ZM125.661 120.961C92.1209 120.961 65.9074 95.5611 65.9074 60.8812C65.9074 26.2012 92.1209 0.801826 125.661 0.801826C159.201 0.801826 185.415 26.2012 185.415 60.8812C185.415 95.5611 159.201 120.961 125.661 120.961ZM125.661 101.097C148.618 101.097 164.412 83.3499 164.412 60.8812C164.412 38.4125 148.618 20.6655 125.661 20.6655C102.704 20.6655 86.9108 38.4125 86.9108 60.8812C86.9108 83.3499 102.704 101.097 125.661 101.097ZM257.189 3.89534C258.817 3.89534 259.794 4.38379 260.283 6.33759L291.706 115.913C292.032 117.216 291.381 117.867 290.078 117.867H273.145C272.168 117.867 271.354 117.379 271.028 116.402L265.33 96.2124C265.004 95.0727 264.516 94.747 263.702 94.747H222.346C221.532 94.747 221.044 95.0727 220.718 96.2124L215.02 116.402C214.694 117.379 213.88 117.867 212.903 117.867H195.97C194.667 117.867 194.016 117.216 194.342 115.913L225.765 6.33759C226.254 4.38379 227.231 3.89534 228.859 3.89534H257.189ZM226.742 74.8834C226.579 75.6975 226.905 76.0231 227.556 76.0231H258.492C259.143 76.0231 259.468 75.6975 259.306 74.8834L244.815 23.9218C244.652 23.2705 244.327 22.9449 243.838 22.9449H242.21C241.721 22.9449 241.396 23.2705 241.233 23.9218L226.742 74.8834ZM346.84 3.89534C378.915 3.89534 401.872 26.364 401.872 60.8812C401.872 95.3983 378.915 117.867 346.84 117.867H312.323C311.183 117.867 310.369 117.053 310.369 115.913V5.84915C310.369 4.70942 311.183 3.89534 312.323 3.89534H346.84ZM330.233 98.0034C330.233 98.6546 330.558 98.9803 331.21 98.9803H344.723C363.284 98.9803 380.869 89.3741 380.869 60.8812C380.869 32.3883 363.284 22.7821 344.723 22.7821H331.21C330.721 22.7821 330.233 23.1077 330.233 23.759V98.0034ZM442.002 3.89534C443.142 3.89534 443.956 4.70942 443.956 5.84915V115.913C443.956 117.053 443.142 117.867 442.002 117.867H426.046C424.907 117.867 424.093 117.053 424.093 115.913V5.84915C424.093 4.70942 424.907 3.89534 426.046 3.89534H442.002ZM538.563 81.0704C539.051 82.0473 539.703 81.7217 539.703 80.7448V5.84915C539.703 4.70942 540.517 3.89534 541.656 3.89534H557.612C558.752 3.89534 559.566 4.70942 559.566 5.84915V115.913C559.566 117.053 558.752 117.867 557.612 117.867H540.028C538.237 117.867 537.26 117.379 536.283 115.75L493.788 40.6919C493.3 39.715 492.649 40.0406 492.649 41.0175V115.913C492.649 117.053 491.835 117.867 490.695 117.867H474.739C473.599 117.867 472.785 117.053 472.785 115.913V5.84915C472.785 4.70942 473.599 3.89534 474.739 3.89534H492.323C494.114 3.89534 495.091 4.38379 496.068 6.01196L538.563 81.0704ZM646.22 76.6744C645.081 76.6744 644.267 75.8603 644.267 74.7206V59.9043C644.267 58.7646 645.081 57.9505 646.22 57.9505H695.554C696.694 57.9505 697.508 58.6017 697.508 59.9043C696.368 97.6777 673.736 120.961 640.847 120.961C606.819 120.961 581.419 96.7008 581.419 60.8812C581.419 25.0615 606.819 0.801826 641.01 0.801826C660.711 0.801826 677.481 9.10548 687.739 22.9449C688.553 24.0846 688.39 24.8987 687.413 25.7128L674.388 35.4818C673.411 36.2959 672.434 35.9702 671.62 34.9933C664.619 25.7128 653.71 20.6655 641.01 20.6655C617.727 20.6655 602.423 37.2728 602.423 60.8812C602.423 84.4896 617.89 101.097 640.847 101.097C658.269 101.097 670.154 92.3048 674.062 77.8141C674.225 77.1628 673.899 76.6744 673.248 76.6744H646.22Z" fill="white"/>
</svg>
