<svg width="862" height="121" viewBox="0 0 862 121" fill="none" xmlns="http://www.w3.org/2000/svg">
<path d="M39.6118 120.094C21.7019 120.094 7.37407 110.325 1.34985 94.3685C0.8614 93.2288 1.34985 92.4147 2.48957 91.9262L17.6315 85.7392C18.7712 85.2508 19.7481 85.7392 20.0738 86.8789C23.0045 95.8338 30.3312 100.393 39.6118 100.393C51.3346 100.393 57.5216 94.2057 57.5216 85.4136C57.5216 76.133 51.823 71.2485 41.7284 69.2947L33.5875 67.8294C15.8405 64.573 3.7921 52.3618 3.7921 33.9635C3.7921 15.8909 18.2828 0.0976362 40.5887 0.0976362C57.5216 0.0976362 70.2213 9.37819 76.0827 23.2176C76.5711 24.3573 76.0827 25.1714 74.943 25.6599L59.801 31.6841C58.6613 32.1725 57.8472 31.8469 57.3588 30.7072C54.2653 23.5432 48.0782 18.9844 40.4258 18.9844C30.494 18.9844 24.6326 25.1714 24.6326 33.3122C24.6326 40.3134 29.3543 45.6863 38.1464 47.4773L46.4501 48.9426C62.8945 52.0362 78.5249 62.7821 78.5249 83.9482C78.5249 103.486 64.0343 120.094 39.6118 120.094ZM159.061 3.02834C160.2 3.02834 161.014 3.84242 161.014 4.98214V19.9613C161.014 21.101 160.2 21.9151 159.061 21.9151H121.613C121.124 21.9151 120.636 22.2407 120.636 22.892V50.408C120.636 50.8964 120.962 51.3849 121.613 51.3849H159.061C160.2 51.3849 161.014 52.199 161.014 53.3387V68.3178C161.014 69.4575 160.2 70.2716 159.061 70.2716H121.613C121.124 70.2716 120.636 70.5973 120.636 71.2485V115.046C120.636 116.186 119.822 117 118.682 117H102.726C101.586 117 100.772 116.186 100.772 115.046V4.98214C100.772 3.84242 101.586 3.02834 102.726 3.02834H159.061ZM183.809 4.98214C183.809 3.84242 184.623 3.02834 185.763 3.02834H244.865C246.005 3.02834 246.819 3.84242 246.819 4.98214V19.9613C246.819 21.101 246.005 21.9151 244.865 21.9151H204.649C204.161 21.9151 203.672 22.2407 203.672 22.892V49.1055C203.672 49.7567 203.998 50.0824 204.649 50.0824H244.865C246.005 50.0824 246.819 50.8964 246.819 52.0362V66.8525C246.819 67.9922 246.005 68.8063 244.865 68.8063H204.649C204.161 68.8063 203.672 69.1319 203.672 69.7832V97.1364C203.672 97.6248 203.998 98.1133 204.649 98.1133H244.865C246.005 98.1133 246.819 98.9274 246.819 100.067V115.046C246.819 116.186 246.005 117 244.865 117H185.763C184.623 117 183.809 116.186 183.809 115.046V4.98214ZM291.797 115.046C291.797 116.186 290.983 117 289.843 117H273.887C272.747 117 271.933 116.186 271.933 115.046V4.98214C271.933 3.84242 272.747 3.02834 273.887 3.02834H308.73C333.315 3.02834 352.365 18.0075 352.365 43.4069C352.365 61.3167 342.921 73.8536 328.594 79.5522C327.454 80.0406 327.291 80.8547 327.942 81.6688L352.365 114.558C353.342 115.86 352.853 117 351.225 117H331.687C329.733 117 328.919 116.674 327.779 114.883L306.776 85.4136C305.799 84.111 305.148 83.7854 303.683 83.7854H292.774C292.285 83.7854 291.797 84.111 291.797 84.7623V115.046ZM292.774 21.9151C292.123 21.9151 291.797 22.2407 291.797 22.892V63.9218C291.797 64.4102 292.123 64.8987 292.774 64.8987H307.59C320.941 64.8987 331.524 57.8976 331.524 43.4069C331.524 28.9162 320.941 21.9151 307.59 21.9151H292.774ZM426.484 3.02834C428.113 3.02834 429.09 3.51679 429.578 5.47058L461.002 115.046C461.327 116.349 460.676 117 459.373 117H442.441C441.464 117 440.65 116.512 440.324 115.535L434.625 95.3454C434.3 94.2057 433.811 93.88 432.997 93.88H391.642C390.828 93.88 390.339 94.2057 390.014 95.3454L384.315 115.535C383.989 116.512 383.175 117 382.198 117H365.265C363.963 117 363.312 116.349 363.637 115.046L395.061 5.47058C395.549 3.51679 396.526 3.02834 398.154 3.02834H426.484ZM396.038 74.0164C395.875 74.8305 396.201 75.1561 396.852 75.1561H427.787C428.438 75.1561 428.764 74.8305 428.601 74.0164L414.11 23.0548C413.948 22.4035 413.622 22.0779 413.134 22.0779H411.505C411.017 22.0779 410.691 22.4035 410.528 23.0548L396.038 74.0164ZM608.625 3.02834C609.765 3.02834 610.579 3.84242 610.579 4.98214V19.9613C610.579 21.101 609.765 21.9151 608.625 21.9151H571.178C570.689 21.9151 570.201 22.2407 570.201 22.892V50.408C570.201 50.8964 570.526 51.3849 571.178 51.3849H608.625C609.765 51.3849 610.579 52.199 610.579 53.3387V68.3178C610.579 69.4575 609.765 70.2716 608.625 70.2716H571.178C570.689 70.2716 570.201 70.5973 570.201 71.2485V115.046C570.201 116.186 569.387 117 568.247 117H552.291C551.151 117 550.337 116.186 550.337 115.046V4.98214C550.337 3.84242 551.151 3.02834 552.291 3.02834H608.625ZM651.283 3.02834C652.423 3.02834 653.237 3.84242 653.237 4.98214V115.046C653.237 116.186 652.423 117 651.283 117H635.327C634.188 117 633.374 116.186 633.374 115.046V4.98214C633.374 3.84242 634.188 3.02834 635.327 3.02834H651.283ZM682.066 4.98214C682.066 3.84242 682.88 3.02834 684.02 3.02834H699.976C701.115 3.02834 701.93 3.84242 701.93 4.98214V97.1364C701.93 97.6248 702.255 98.1133 702.906 98.1133H739.377C740.517 98.1133 741.331 98.9274 741.331 100.067V115.046C741.331 116.186 740.517 117 739.377 117H684.02C682.88 117 682.066 116.186 682.066 115.046V4.98214ZM761.487 117C760.348 117 759.696 116.186 759.696 115.209V4.81933C759.696 3.84242 760.348 3.02834 761.487 3.02834H781.025C782.002 3.02834 782.816 3.51679 783.305 4.33087L809.681 49.2683C810.495 50.5708 810.821 50.5708 811.635 49.2683L838.011 4.33087C838.5 3.51679 839.314 3.02834 840.291 3.02834H859.829C860.968 3.02834 861.62 3.84242 861.62 4.81933V115.209C861.62 116.186 860.968 117 859.829 117H843.547C842.407 117 841.756 116.186 841.756 115.209V38.5224C841.756 37.5455 840.942 37.057 840.291 38.1967L813.1 81.8316C811.635 84.111 809.681 84.111 808.216 81.8316L781.025 38.1967C780.374 37.057 779.56 37.5455 779.56 38.5224V115.209C779.56 116.186 778.909 117 777.769 117H761.487Z" fill="white"/>
</svg>
