<svg width="846" height="226" viewBox="0 0 846 226" fill="none" xmlns="http://www.w3.org/2000/svg">
<path d="M64.801 177.094C31.7492 177.094 6.67548 152.834 6.67548 117.014C6.67548 81.1945 31.7492 56.9348 64.801 56.9348C86.7813 56.9348 105.505 67.3551 114.786 84.6137C115.274 85.5906 115.111 86.4046 114.134 87.0559L100.458 96.3365C99.481 96.9877 98.3413 96.8249 97.69 95.6852C91.1773 83.4739 79.4545 76.7985 64.801 76.7985C42.4951 76.7985 27.6788 93.4058 27.6788 117.014C27.6788 140.623 42.4951 157.23 64.801 157.23C79.4545 157.23 91.1773 150.554 97.69 138.343C98.3413 137.203 99.481 137.041 100.458 137.692L114.134 146.972C115.111 147.624 115.274 148.438 114.786 149.415C105.505 166.673 86.7813 177.094 64.801 177.094ZM187.149 177.094C153.609 177.094 127.395 151.694 127.395 117.014C127.395 82.3342 153.609 56.9348 187.149 56.9348C220.689 56.9348 246.903 82.3342 246.903 117.014C246.903 151.694 220.689 177.094 187.149 177.094ZM187.149 157.23C210.106 157.23 225.899 139.483 225.899 117.014C225.899 94.5455 210.106 76.7985 187.149 76.7985C164.192 76.7985 148.398 94.5455 148.398 117.014C148.398 139.483 164.192 157.23 187.149 157.23ZM334.246 137.203C334.735 138.18 335.386 137.855 335.386 136.878V61.9821C335.386 60.8424 336.2 60.0283 337.34 60.0283H353.296C354.435 60.0283 355.249 60.8424 355.249 61.9821V172.046C355.249 173.186 354.435 174 353.296 174H335.711C333.92 174 332.944 173.512 331.967 171.883L289.471 96.8249C288.983 95.848 288.332 96.1736 288.332 97.1505V172.046C288.332 173.186 287.518 174 286.378 174H270.422C269.282 174 268.468 173.186 268.468 172.046V61.9821C268.468 60.8424 269.282 60.0283 270.422 60.0283H288.006C289.797 60.0283 290.774 60.5168 291.751 62.145L334.246 137.203ZM449.719 60.0283C450.858 60.0283 451.672 60.8424 451.672 61.9821V76.9613C451.672 78.101 450.858 78.9151 449.719 78.9151H423.342C422.691 78.9151 422.365 79.2407 422.365 79.892V172.046C422.365 173.186 421.551 174 420.412 174H404.456C403.316 174 402.502 173.186 402.502 172.046V79.892C402.502 79.4035 402.176 78.9151 401.525 78.9151H375.149C374.009 78.9151 373.195 78.101 373.195 76.9613V61.9821C373.195 60.8424 374.009 60.0283 375.149 60.0283H449.719ZM512.416 60.0283C514.044 60.0283 515.021 60.5168 515.509 62.4706L546.933 172.046C547.259 173.349 546.607 174 545.305 174H528.372C527.395 174 526.581 173.512 526.255 172.535L520.557 152.345C520.231 151.206 519.743 150.88 518.928 150.88H477.573C476.759 150.88 476.271 151.206 475.945 152.345L470.246 172.535C469.921 173.512 469.107 174 468.13 174H451.197C449.894 174 449.243 173.349 449.569 172.046L480.992 62.4706C481.481 60.5168 482.458 60.0283 484.086 60.0283H512.416ZM481.969 131.016C481.806 131.83 482.132 132.156 482.783 132.156H513.718C514.37 132.156 514.695 131.83 514.532 131.016L500.042 80.0548C499.879 79.4035 499.553 79.0779 499.065 79.0779H497.437C496.948 79.0779 496.623 79.4035 496.46 80.0548L481.969 131.016ZM614.339 177.094C581.287 177.094 556.214 152.834 556.214 117.014C556.214 81.1945 581.287 56.9348 614.339 56.9348C636.319 56.9348 655.043 67.3551 664.324 84.6137C664.812 85.5906 664.649 86.4046 663.673 87.0559L649.996 96.3365C649.019 96.9877 647.879 96.8249 647.228 95.6852C640.715 83.4739 628.993 76.7985 614.339 76.7985C592.033 76.7985 577.217 93.4058 577.217 117.014C577.217 140.623 592.033 157.23 614.339 157.23C628.993 157.23 640.715 150.554 647.228 138.343C647.879 137.203 649.019 137.041 649.996 137.692L663.673 146.972C664.649 147.624 664.812 148.438 664.324 149.415C655.043 166.673 636.319 177.094 614.339 177.094ZM749.708 60.0283C750.848 60.0283 751.662 60.8424 751.662 61.9821V76.9613C751.662 78.101 750.848 78.9151 749.708 78.9151H723.332C722.681 78.9151 722.355 79.2407 722.355 79.892V172.046C722.355 173.186 721.541 174 720.401 174H704.445C703.306 174 702.492 173.186 702.492 172.046V79.892C702.492 79.4035 702.166 78.9151 701.515 78.9151H675.138C673.999 78.9151 673.185 78.101 673.185 76.9613V61.9821C673.185 60.8424 673.999 60.0283 675.138 60.0283H749.708ZM799.019 177.094C781.109 177.094 766.781 167.325 760.757 151.368C760.269 150.229 760.757 149.415 761.897 148.926L777.039 142.739C778.178 142.251 779.155 142.739 779.481 143.879C782.412 152.834 789.738 157.393 799.019 157.393C810.742 157.393 816.929 151.206 816.929 142.414C816.929 133.133 811.23 128.249 801.136 126.295L792.995 124.829C775.248 121.573 763.199 109.362 763.199 90.9635C763.199 72.8909 777.69 57.0976 799.996 57.0976C816.929 57.0976 829.628 66.3782 835.49 80.2176C835.978 81.3573 835.49 82.1714 834.35 82.6599L819.208 88.6841C818.068 89.1725 817.254 88.8469 816.766 87.7072C813.672 80.5432 807.485 75.9844 799.833 75.9844C789.901 75.9844 784.04 82.1714 784.04 90.3122C784.04 97.3134 788.761 102.686 797.554 104.477L805.857 105.943C822.302 109.036 837.932 119.782 837.932 140.948C837.932 160.486 823.441 177.094 799.019 177.094Z" fill="white"/>
</svg>
