<svg width="91" height="14" viewBox="0 0 91 14" fill="none" xmlns="http://www.w3.org/2000/svg">
<path d="M6.192 1.80335C5.38133 1.80335 4.76267 1.99001 4.336 2.36335C3.90933 2.72601 3.696 3.33401 3.696 4.18735V13.1313H2.224V4.39535C2.224 3.67001 2.352 3.02468 2.608 2.45935C2.864 1.88335 3.26933 1.43001 3.824 1.09935C4.38933 0.76868 5.12533 0.603347 6.032 0.603347C6.48 0.603347 6.87467 0.646014 7.216 0.731347C7.568 0.806014 7.89867 0.902014 8.208 1.01935V2.25135C7.89867 2.09135 7.57867 1.97935 7.248 1.91535C6.91733 1.84068 6.56533 1.80335 6.192 1.80335ZM0.24 5.86735V4.66735H8.048V5.86735H0.24ZM17.6388 13.1313L17.3188 9.72335L17.7188 8.61935L17.3188 7.53135L17.6388 4.12335H19.1428L18.7268 8.61935L19.1428 13.1313H17.6388ZM18.2148 8.61935C17.9801 9.55801 17.6174 10.3847 17.1267 11.0993C16.6468 11.8033 16.0601 12.3527 15.3668 12.7473C14.6841 13.142 13.9268 13.3393 13.0947 13.3393C12.2094 13.3393 11.4254 13.142 10.7427 12.7473C10.0601 12.342 9.52142 11.7873 9.12675 11.0833C8.74275 10.3687 8.55075 9.54735 8.55075 8.61935C8.55075 7.68068 8.74275 6.85935 9.12675 6.15535C9.52142 5.45135 10.0601 4.90201 10.7427 4.50735C11.4254 4.11268 12.2094 3.91535 13.0947 3.91535C13.9268 3.91535 14.6841 4.11268 15.3668 4.50735C16.0601 4.90201 16.6521 5.45135 17.1428 6.15535C17.6334 6.85935 17.9907 7.68068 18.2148 8.61935ZM10.0547 8.61935C10.0547 9.30201 10.1934 9.90468 10.4707 10.4273C10.7587 10.95 11.1481 11.3607 11.6388 11.6593C12.1401 11.9473 12.7054 12.0913 13.3348 12.0913C13.9748 12.0913 14.5614 11.9473 15.0948 11.6593C15.6388 11.3607 16.1188 10.95 16.5347 10.4273C16.9614 9.90468 17.3081 9.30201 17.5747 8.61935C17.3081 7.93668 16.9614 7.33401 16.5347 6.81135C16.1188 6.28868 15.6388 5.88335 15.0948 5.59535C14.5614 5.29668 13.9748 5.14735 13.3348 5.14735C12.7054 5.14735 12.1401 5.29668 11.6388 5.59535C11.1481 5.88335 10.7587 6.28868 10.4707 6.81135C10.1934 7.33401 10.0547 7.93668 10.0547 8.61935ZM31.0724 9.70735C30.955 10.422 30.6617 11.0513 30.1924 11.5953C29.7337 12.1393 29.147 12.566 28.4324 12.8753C27.7177 13.1847 26.9284 13.3393 26.0644 13.3393C25.0617 13.3393 24.1764 13.142 23.4084 12.7473C22.6404 12.342 22.0377 11.7873 21.6004 11.0833C21.1737 10.3687 20.9604 9.54735 20.9604 8.61935C20.9604 7.69135 21.1737 6.87535 21.6004 6.17135C22.0377 5.45668 22.6404 4.90201 23.4084 4.50735C24.1764 4.11268 25.0617 3.91535 26.0644 3.91535C26.9284 3.91535 27.7177 4.07001 28.4324 4.37935C29.147 4.67801 29.7337 5.09935 30.1924 5.64335C30.6617 6.18735 30.955 6.82201 31.0724 7.54735H29.5524C29.3924 6.80068 28.9924 6.21401 28.3524 5.78735C27.723 5.35001 26.9604 5.13135 26.0644 5.13135C25.339 5.13135 24.7044 5.27535 24.1604 5.56335C23.627 5.85135 23.211 6.25668 22.9124 6.77935C22.6137 7.29135 22.4644 7.90468 22.4644 8.61935C22.4644 9.33401 22.6137 9.95268 22.9124 10.4753C23.211 10.998 23.627 11.4033 24.1604 11.6913C24.7044 11.9687 25.339 12.1073 26.0644 12.1073C26.971 12.1073 27.739 11.8887 28.3684 11.4513C29.0084 11.014 29.403 10.4327 29.5524 9.70735H31.0724ZM37.7289 13.3393C36.6942 13.3393 35.7769 13.142 34.9769 12.7473C34.1875 12.342 33.5635 11.7873 33.1049 11.0833C32.6569 10.3687 32.4329 9.54735 32.4329 8.61935C32.4329 7.68068 32.6462 6.85935 33.0729 6.15535C33.4995 5.45135 34.0915 4.90201 34.8489 4.50735C35.6062 4.11268 36.4755 3.91535 37.4569 3.91535C38.4275 3.91535 39.2755 4.12868 40.0009 4.55535C40.7262 4.98201 41.2862 5.58468 41.6809 6.36335C42.0862 7.13135 42.2889 8.02735 42.2889 9.05135H33.5529V7.88335H41.6649L40.8009 8.41135C40.7689 7.73935 40.6089 7.15801 40.3209 6.66735C40.0329 6.17668 39.6435 5.79801 39.1529 5.53135C38.6622 5.26468 38.0915 5.13135 37.4409 5.13135C36.7369 5.13135 36.1235 5.27535 35.6009 5.56335C35.0782 5.84068 34.6675 6.23535 34.3689 6.74735C34.0809 7.25935 33.9369 7.86201 33.9369 8.55535C33.9369 9.28068 34.1022 9.91001 34.4329 10.4433C34.7635 10.9767 35.2275 11.3873 35.8249 11.6753C36.4222 11.9633 37.1262 12.1073 37.9369 12.1073C38.6729 12.1073 39.3929 11.9847 40.0969 11.7393C40.8115 11.494 41.4515 11.158 42.0169 10.7313V11.8833C41.4622 12.3313 40.8009 12.6887 40.0329 12.9553C39.2649 13.2113 38.4969 13.3393 37.7289 13.3393ZM44.2775 0.811347H45.7495V7.46735L45.4775 7.93135V9.29135L45.7495 9.91535V13.1313H44.2775V0.811347ZM45.0295 8.61935C45.2642 7.68068 45.6215 6.85935 46.1015 6.15535C46.5922 5.45135 47.1788 4.90201 47.8615 4.50735C48.5548 4.11268 49.3175 3.91535 50.1495 3.91535C51.0348 3.91535 51.8188 4.11268 52.5015 4.50735C53.1842 4.90201 53.7175 5.45135 54.1015 6.15535C54.4962 6.85935 54.6935 7.68068 54.6935 8.61935C54.6935 9.54735 54.4962 10.3687 54.1015 11.0833C53.7175 11.7873 53.1842 12.342 52.5015 12.7473C51.8188 13.142 51.0348 13.3393 50.1495 13.3393C49.3175 13.3393 48.5548 13.142 47.8615 12.7473C47.1788 12.3527 46.5922 11.8033 46.1015 11.0993C45.6215 10.3847 45.2642 9.55801 45.0295 8.61935ZM53.1895 8.61935C53.1895 7.93668 53.0455 7.33401 52.7575 6.81135C52.4802 6.28868 52.0908 5.88335 51.5895 5.59535C51.0988 5.29668 50.5388 5.14735 49.9095 5.14735C49.2695 5.14735 48.6775 5.29668 48.1335 5.59535C47.6002 5.88335 47.1255 6.28868 46.7095 6.81135C46.2935 7.33401 45.9468 7.93668 45.6695 8.61935C45.9468 9.30201 46.2935 9.90468 46.7095 10.4273C47.1255 10.95 47.6002 11.3607 48.1335 11.6593C48.6775 11.9473 49.2695 12.0913 49.9095 12.0913C50.5388 12.0913 51.0988 11.9473 51.5895 11.6593C52.0908 11.3607 52.4802 10.95 52.7575 10.4273C53.0455 9.90468 53.1895 9.30201 53.1895 8.61935ZM61.5187 13.3393C60.4627 13.3393 59.5294 13.142 58.7187 12.7473C57.9187 12.3527 57.2947 11.798 56.8467 11.0833C56.3987 10.3687 56.1747 9.54735 56.1747 8.61935C56.1747 7.68068 56.3987 6.85935 56.8467 6.15535C57.2947 5.45135 57.9187 4.90201 58.7187 4.50735C59.5294 4.11268 60.4627 3.91535 61.5187 3.91535C62.5854 3.91535 63.5187 4.11268 64.3187 4.50735C65.1187 4.90201 65.7427 5.45135 66.1908 6.15535C66.6494 6.85935 66.8787 7.68068 66.8787 8.61935C66.8787 9.54735 66.6494 10.3687 66.1908 11.0833C65.7427 11.798 65.1187 12.3527 64.3187 12.7473C63.5187 13.142 62.5854 13.3393 61.5187 13.3393ZM61.5187 12.1073C62.3081 12.1073 62.9907 11.9687 63.5667 11.6913C64.1427 11.4033 64.5854 10.998 64.8947 10.4753C65.2147 9.95268 65.3748 9.33401 65.3748 8.61935C65.3748 7.91535 65.2147 7.30201 64.8947 6.77935C64.5854 6.25668 64.1427 5.85135 63.5667 5.56335C62.9907 5.27535 62.3081 5.13135 61.5187 5.13135C60.7401 5.13135 60.0574 5.27535 59.4707 5.56335C58.8947 5.85135 58.4521 6.25668 58.1427 6.77935C57.8334 7.30201 57.6787 7.91535 57.6787 8.61935C57.6787 9.33401 57.8334 9.95268 58.1427 10.4753C58.4521 10.998 58.8947 11.4033 59.4707 11.6913C60.0574 11.9687 60.7401 12.1073 61.5187 12.1073ZM73.6787 13.3393C72.6227 13.3393 71.6894 13.142 70.8787 12.7473C70.0787 12.3527 69.4547 11.798 69.0067 11.0833C68.5587 10.3687 68.3347 9.54735 68.3347 8.61935C68.3347 7.68068 68.5587 6.85935 69.0067 6.15535C69.4547 5.45135 70.0787 4.90201 70.8787 4.50735C71.6894 4.11268 72.6227 3.91535 73.6787 3.91535C74.7454 3.91535 75.6787 4.11268 76.4787 4.50735C77.2787 4.90201 77.9027 5.45135 78.3507 6.15535C78.8094 6.85935 79.0387 7.68068 79.0387 8.61935C79.0387 9.54735 78.8094 10.3687 78.3507 11.0833C77.9027 11.798 77.2787 12.3527 76.4787 12.7473C75.6787 13.142 74.7454 13.3393 73.6787 13.3393ZM73.6787 12.1073C74.4681 12.1073 75.1507 11.9687 75.7267 11.6913C76.3027 11.4033 76.7454 10.998 77.0547 10.4753C77.3747 9.95268 77.5347 9.33401 77.5347 8.61935C77.5347 7.91535 77.3747 7.30201 77.0547 6.77935C76.7454 6.25668 76.3027 5.85135 75.7267 5.56335C75.1507 5.27535 74.4681 5.13135 73.6787 5.13135C72.9001 5.13135 72.2174 5.27535 71.6307 5.56335C71.0547 5.85135 70.6121 6.25668 70.3027 6.77935C69.9934 7.30201 69.8387 7.91535 69.8387 8.61935C69.8387 9.33401 69.9934 9.95268 70.3027 10.4753C70.6121 10.998 71.0547 11.4033 71.6307 11.6913C72.2174 11.9687 72.9001 12.1073 73.6787 12.1073ZM82.5108 11.7713L82.0788 11.6113L88.3028 4.12335H90.0308L82.4148 13.1313H81.0388V0.811347H82.5108V11.7713ZM85.5988 8.63535L86.5428 7.53135L90.3188 13.1313H88.5588L85.5988 8.63535Z" fill="white"/>
</svg>
