<svg width="97" height="16" viewBox="0 0 97 16" fill="none" xmlns="http://www.w3.org/2000/svg">
<path d="M1.2 4.09135L1.936 4.21935L2.672 4.09135V13.1313H1.2V4.09135ZM1.92 2.76335C1.62133 2.76335 1.36533 2.67268 1.152 2.49135C0.949333 2.29935 0.848 2.06468 0.848 1.78735C0.848 1.49935 0.949333 1.26468 1.152 1.08335C1.36533 0.891347 1.62133 0.795347 1.92 0.795347C2.24 0.795347 2.50133 0.891347 2.704 1.08335C2.90667 1.26468 3.008 1.49935 3.008 1.78735C3.008 2.06468 2.90667 2.29935 2.704 2.49135C2.50133 2.67268 2.24 2.76335 1.92 2.76335ZM4.80337 4.12335H6.27537L6.78737 7.17935V13.1313H5.31537V6.97135L4.80337 4.12335ZM10.5154 3.91535C11.358 3.91535 12.0727 4.08601 12.6594 4.42735C13.246 4.75801 13.694 5.24335 14.0034 5.88335C14.3127 6.51268 14.4674 7.27535 14.4674 8.17135V13.1313H12.9954V8.42735C12.9954 7.35001 12.7447 6.53935 12.2434 5.99535C11.7527 5.44068 11.0327 5.16335 10.0834 5.16335C9.42204 5.16335 8.84071 5.31268 8.33938 5.61135C7.84871 5.91001 7.46471 6.32601 7.18738 6.85935C6.92071 7.38201 6.78737 7.99535 6.78737 8.69935L6.19537 8.28335C6.27004 7.38735 6.49937 6.61401 6.88337 5.96335C7.26737 5.31268 7.76871 4.81135 8.38737 4.45935C9.01671 4.09668 9.72604 3.91535 10.5154 3.91535ZM25.6634 10.4913C25.6634 11.0673 25.4874 11.5687 25.1354 11.9953C24.794 12.422 24.2874 12.7527 23.6154 12.9873C22.954 13.222 22.1487 13.3393 21.1994 13.3393C20.2287 13.3393 19.37 13.206 18.6234 12.9393C17.8874 12.662 17.3114 12.278 16.8954 11.7873C16.4794 11.2967 16.2554 10.726 16.2234 10.0753H17.7274C17.7914 10.4913 17.978 10.8593 18.2874 11.1793C18.5967 11.4887 19.002 11.7287 19.5034 11.8993C20.0047 12.07 20.5754 12.1553 21.2154 12.1553C22.1434 12.1553 22.8687 12.0167 23.3914 11.7393C23.9247 11.4513 24.1914 11.062 24.1914 10.5713C24.1914 10.1873 24.0207 9.90468 23.6794 9.72335C23.338 9.53135 22.7034 9.38735 21.7754 9.29135L20.0314 9.11535C19.1674 9.03001 18.474 8.87535 17.9514 8.65135C17.4394 8.41668 17.0714 8.12868 16.8474 7.78735C16.6234 7.43535 16.5114 7.04601 16.5114 6.61935C16.5114 6.03268 16.6874 5.54201 17.0394 5.14735C17.402 4.74201 17.9034 4.43801 18.5434 4.23535C19.1834 4.02201 19.9247 3.91535 20.7674 3.91535C21.6634 3.91535 22.458 4.04335 23.1514 4.29935C23.8554 4.55535 24.4154 4.91268 24.8314 5.37135C25.2474 5.83001 25.4767 6.35801 25.5194 6.95535H24.0314C23.978 6.61401 23.818 6.30468 23.5514 6.02735C23.2847 5.73935 22.9114 5.51001 22.4314 5.33935C21.962 5.16868 21.3807 5.08335 20.6874 5.08335C19.834 5.08335 19.1674 5.20601 18.6874 5.45135C18.218 5.69668 17.9834 6.05401 17.9834 6.52335C17.9834 6.86468 18.138 7.13668 18.4474 7.33935C18.7567 7.54201 19.306 7.68601 20.0954 7.77135L22.0794 7.97935C22.986 8.06468 23.7007 8.21401 24.2234 8.42735C24.746 8.64068 25.114 8.91801 25.3274 9.25935C25.5514 9.60068 25.6634 10.0113 25.6634 10.4913ZM26.4346 5.30735V4.60335L28.4186 4.23535L29.0106 1.78735H29.8906V4.12335H34.2746V5.30735H29.8906V9.88335C29.8906 10.694 30.0666 11.2647 30.4186 11.5953C30.7813 11.9153 31.336 12.0753 32.0826 12.0753C32.5733 12.0753 33 12.0167 33.3626 11.8993C33.736 11.782 34.0986 11.6113 34.4506 11.3873V12.6833C34.1946 12.8433 33.816 12.9927 33.3146 13.1313C32.824 13.27 32.312 13.3393 31.7786 13.3393C30.968 13.3393 30.312 13.2007 29.8106 12.9233C29.32 12.6353 28.9626 12.2513 28.7386 11.7713C28.5253 11.2807 28.4186 10.726 28.4186 10.1073V5.30735H26.4346ZM44.4469 13.1313L44.1269 9.72335L44.5269 8.61935L44.1269 7.53135L44.4469 4.12335H45.9509L45.5349 8.61935L45.9509 13.1313H44.4469ZM45.0229 8.61935C44.7882 9.55801 44.4255 10.3847 43.9349 11.0993C43.4549 11.8033 42.8682 12.3527 42.1749 12.7473C41.4922 13.142 40.7349 13.3393 39.9029 13.3393C39.0175 13.3393 38.2335 13.142 37.5509 12.7473C36.8682 12.342 36.3295 11.7873 35.9349 11.0833C35.5509 10.3687 35.3589 9.54735 35.3589 8.61935C35.3589 7.68068 35.5509 6.85935 35.9349 6.15535C36.3295 5.45135 36.8682 4.90201 37.5509 4.50735C38.2335 4.11268 39.0175 3.91535 39.9029 3.91535C40.7349 3.91535 41.4922 4.11268 42.1749 4.50735C42.8682 4.90201 43.4602 5.45135 43.9509 6.15535C44.4415 6.85935 44.7989 7.68068 45.0229 8.61935ZM36.8629 8.61935C36.8629 9.30201 37.0015 9.90468 37.2789 10.4273C37.5669 10.95 37.9562 11.3607 38.4469 11.6593C38.9482 11.9473 39.5135 12.0913 40.1429 12.0913C40.7829 12.0913 41.3695 11.9473 41.9029 11.6593C42.4469 11.3607 42.9269 10.95 43.3429 10.4273C43.7695 9.90468 44.1162 9.30201 44.3829 8.61935C44.1162 7.93668 43.7695 7.33401 43.3429 6.81135C42.9269 6.28868 42.4469 5.88335 41.9029 5.59535C41.3695 5.29668 40.7829 5.14735 40.1429 5.14735C39.5135 5.14735 38.9482 5.29668 38.4469 5.59535C37.9562 5.88335 37.5669 6.28868 37.2789 6.81135C37.0015 7.33401 36.8629 7.93668 36.8629 8.61935ZM56.6965 10.9393V9.32335L56.7605 9.08335V7.59535L56.6965 7.27535V4.12335H58.1685V10.7313C58.1685 11.9047 57.9285 12.8807 57.4485 13.6593C56.9792 14.438 56.3392 15.0193 55.5285 15.4033C54.7178 15.7873 53.7952 15.9793 52.7605 15.9793C51.9818 15.9793 51.2565 15.8673 50.5845 15.6433C49.9232 15.43 49.2885 15.0993 48.6805 14.6513V13.3553C49.3205 13.878 49.9765 14.2407 50.6485 14.4433C51.3312 14.646 52.0085 14.7473 52.6805 14.7473C53.9818 14.7473 54.9738 14.406 55.6565 13.7233C56.3498 13.0513 56.6965 12.1233 56.6965 10.9393ZM52.1205 12.5553C51.3098 12.5553 50.5738 12.374 49.9125 12.0113C49.2618 11.6487 48.7445 11.1473 48.3605 10.5073C47.9765 9.85668 47.7845 9.09935 47.7845 8.23535C47.7845 7.36068 47.9765 6.60335 48.3605 5.96335C48.7445 5.31268 49.2618 4.81135 49.9125 4.45935C50.5738 4.09668 51.3098 3.91535 52.1205 3.91535C52.7285 3.91535 53.2938 4.01135 53.8165 4.20335C54.3392 4.38468 54.8138 4.63001 55.2405 4.93935C55.6672 5.24868 56.0298 5.59535 56.3285 5.97935C56.6272 6.36335 56.8565 6.75268 57.0165 7.14735C57.1872 7.53135 57.2725 7.89401 57.2725 8.23535C57.2725 8.67268 57.1445 9.14201 56.8885 9.64335C56.6432 10.134 56.2858 10.6033 55.8165 11.0513C55.3578 11.4887 54.8138 11.8513 54.1845 12.1393C53.5658 12.4167 52.8778 12.5553 52.1205 12.5553ZM52.5205 11.3713C53.3525 11.3713 54.1205 11.126 54.8245 10.6353C55.5285 10.1447 56.1738 9.34468 56.7605 8.23535C56.1845 7.10468 55.5392 6.29935 54.8245 5.81935C54.1205 5.32868 53.3525 5.08335 52.5205 5.08335C51.8272 5.08335 51.2352 5.22201 50.7445 5.49935C50.2645 5.76601 49.8965 6.13401 49.6405 6.60335C49.3952 7.07268 49.2725 7.61668 49.2725 8.23535C49.2725 8.83268 49.3952 9.37135 49.6405 9.85135C49.8965 10.3207 50.2645 10.694 50.7445 10.9713C51.2352 11.238 51.8272 11.3713 52.5205 11.3713ZM60.244 4.12335H61.716L62.228 7.19535V13.1313H60.756V6.92335L60.244 4.12335ZM67.012 4.09135V5.41935C66.8093 5.35535 66.5693 5.30735 66.292 5.27535C66.0253 5.24335 65.7693 5.22735 65.524 5.22735C64.884 5.22735 64.3133 5.37135 63.812 5.65935C63.3107 5.94735 62.9213 6.36868 62.644 6.92335C62.3667 7.46735 62.228 8.11268 62.228 8.85935L61.812 8.28335C61.8333 7.65401 61.9347 7.07268 62.116 6.53935C62.2973 6.00601 62.5533 5.54735 62.884 5.16335C63.2253 4.76868 63.6307 4.46468 64.1 4.25135C64.58 4.02735 65.1187 3.91535 65.716 3.91535C65.94 3.91535 66.1693 3.93135 66.404 3.96335C66.6493 3.99535 66.852 4.03801 67.012 4.09135ZM76.6925 13.1313L76.3725 9.72335L76.7725 8.61935L76.3725 7.53135L76.6925 4.12335H78.1965L77.7805 8.61935L78.1965 13.1313H76.6925ZM77.2685 8.61935C77.0338 9.55801 76.6712 10.3847 76.1805 11.0993C75.7005 11.8033 75.1138 12.3527 74.4205 12.7473C73.7378 13.142 72.9805 13.3393 72.1485 13.3393C71.2632 13.3393 70.4792 13.142 69.7965 12.7473C69.1138 12.342 68.5752 11.7873 68.1805 11.0833C67.7965 10.3687 67.6045 9.54735 67.6045 8.61935C67.6045 7.68068 67.7965 6.85935 68.1805 6.15535C68.5752 5.45135 69.1138 4.90201 69.7965 4.50735C70.4792 4.11268 71.2632 3.91535 72.1485 3.91535C72.9805 3.91535 73.7378 4.11268 74.4205 4.50735C75.1138 4.90201 75.7058 5.45135 76.1965 6.15535C76.6872 6.85935 77.0445 7.68068 77.2685 8.61935ZM69.1085 8.61935C69.1085 9.30201 69.2472 9.90468 69.5245 10.4273C69.8125 10.95 70.2018 11.3607 70.6925 11.6593C71.1938 11.9473 71.7592 12.0913 72.3885 12.0913C73.0285 12.0913 73.6152 11.9473 74.1485 11.6593C74.6925 11.3607 75.1725 10.95 75.5885 10.4273C76.0152 9.90468 76.3618 9.30201 76.6285 8.61935C76.3618 7.93668 76.0152 7.33401 75.5885 6.81135C75.1725 6.28868 74.6925 5.88335 74.1485 5.59535C73.6152 5.29668 73.0285 5.14735 72.3885 5.14735C71.7592 5.14735 71.1938 5.29668 70.6925 5.59535C70.2018 5.88335 69.8125 6.28868 69.5245 6.81135C69.2472 7.33401 69.1085 7.93668 69.1085 8.61935ZM80.1421 4.12335H81.6141L82.1261 7.17935V13.1313H80.6541V6.97135L80.1421 4.12335ZM85.5661 3.91535C86.3448 3.91535 87.0061 4.08601 87.5501 4.42735C88.0941 4.75801 88.5101 5.24335 88.7981 5.88335C89.0861 6.51268 89.2301 7.27535 89.2301 8.17135V13.1313H87.7581V8.42735C87.7581 7.35001 87.5341 6.53935 87.0861 5.99535C86.6381 5.44068 85.9875 5.16335 85.1341 5.16335C84.5261 5.16335 83.9928 5.31268 83.5341 5.61135C83.0861 5.91001 82.7395 6.32601 82.4941 6.85935C82.2488 7.38201 82.1261 7.99535 82.1261 8.69935L81.5341 8.28335C81.6088 7.38735 81.8221 6.61401 82.1741 5.96335C82.5368 5.31268 83.0061 4.81135 83.5821 4.45935C84.1688 4.09668 84.8301 3.91535 85.5661 3.91535ZM92.6541 3.91535C93.4328 3.91535 94.0941 4.08601 94.6381 4.42735C95.1928 4.75801 95.6141 5.24335 95.9021 5.88335C96.1901 6.51268 96.3341 7.27535 96.3341 8.17135V13.1313H94.8621V8.42735C94.8621 7.35001 94.6381 6.53935 94.1901 5.99535C93.7421 5.44068 93.0915 5.16335 92.2381 5.16335C91.6301 5.16335 91.0968 5.31268 90.6381 5.61135C90.1901 5.91001 89.8435 6.32601 89.5981 6.85935C89.3528 7.38201 89.2301 7.99535 89.2301 8.69935L88.6381 8.28335C88.7128 7.38735 88.9261 6.61401 89.2781 5.96335C89.6408 5.31268 90.1101 4.81135 90.6861 4.45935C91.2728 4.09668 91.9288 3.91535 92.6541 3.91535Z" fill="white"/>
</svg>
