<svg width="59" height="14" viewBox="0 0 59 14" fill="none" xmlns="http://www.w3.org/2000/svg">
<path d="M0.064 5.30735V4.60335L2.048 4.23535L2.64 1.78735H3.52V4.12335H7.904V5.30735H3.52V9.88335C3.52 10.694 3.696 11.2647 4.048 11.5953C4.41067 11.9153 4.96533 12.0753 5.712 12.0753C6.20267 12.0753 6.62933 12.0167 6.992 11.8993C7.36533 11.782 7.728 11.6113 8.08 11.3873V12.6833C7.824 12.8433 7.44533 12.9927 6.944 13.1313C6.45333 13.27 5.94133 13.3393 5.408 13.3393C4.59733 13.3393 3.94133 13.2007 3.44 12.9233C2.94933 12.6353 2.592 12.2513 2.368 11.7713C2.15467 11.2807 2.048 10.726 2.048 10.1073V5.30735H0.064ZM9.82875 4.09135L10.5647 4.21935L11.3008 4.09135V13.1313H9.82875V4.09135ZM10.5487 2.76335C10.2501 2.76335 9.99408 2.67268 9.78075 2.49135C9.57808 2.29935 9.47675 2.06468 9.47675 1.78735C9.47675 1.49935 9.57808 1.26468 9.78075 1.08335C9.99408 0.891347 10.2501 0.795347 10.5487 0.795347C10.8687 0.795347 11.1301 0.891347 11.3328 1.08335C11.5354 1.26468 11.6367 1.49935 11.6367 1.78735C11.6367 2.06468 11.5354 2.29935 11.3328 2.49135C11.1301 2.67268 10.8687 2.76335 10.5487 2.76335ZM15.3201 11.7713L14.8881 11.6113L21.1121 4.12335H22.8401L15.2241 13.1313H13.8481V0.811347H15.3201V11.7713ZM18.4081 8.63535L19.3521 7.53135L23.1281 13.1313H21.3681L18.4081 8.63535ZM23.5174 6.84335H27.0214V8.12335H23.5174V6.84335ZM27.7665 5.30735V4.60335L29.7505 4.23535L30.3425 1.78735H31.2225V4.12335H35.6065V5.30735H31.2225V9.88335C31.2225 10.694 31.3985 11.2647 31.7505 11.5953C32.1132 11.9153 32.6678 12.0753 33.4145 12.0753C33.9052 12.0753 34.3318 12.0167 34.6945 11.8993C35.0678 11.782 35.4305 11.6113 35.7825 11.3873V12.6833C35.5265 12.8433 35.1478 12.9927 34.6465 13.1313C34.1558 13.27 33.6438 13.3393 33.1105 13.3393C32.2998 13.3393 31.6438 13.2007 31.1425 12.9233C30.6518 12.6353 30.2945 12.2513 30.0705 11.7713C29.8572 11.2807 29.7505 10.726 29.7505 10.1073V5.30735H27.7665ZM42.0031 13.3393C40.9471 13.3393 40.0138 13.142 39.2031 12.7473C38.4031 12.3527 37.7791 11.798 37.3311 11.0833C36.8831 10.3687 36.6591 9.54735 36.6591 8.61935C36.6591 7.68068 36.8831 6.85935 37.3311 6.15535C37.7791 5.45135 38.4031 4.90201 39.2031 4.50735C40.0138 4.11268 40.9471 3.91535 42.0031 3.91535C43.0698 3.91535 44.0031 4.11268 44.8031 4.50735C45.6031 4.90201 46.2271 5.45135 46.6751 6.15535C47.1338 6.85935 47.3631 7.68068 47.3631 8.61935C47.3631 9.54735 47.1338 10.3687 46.6751 11.0833C46.2271 11.798 45.6031 12.3527 44.8031 12.7473C44.0031 13.142 43.0698 13.3393 42.0031 13.3393ZM42.0031 12.1073C42.7925 12.1073 43.4751 11.9687 44.0511 11.6913C44.6271 11.4033 45.0698 10.998 45.3791 10.4753C45.6991 9.95268 45.8591 9.33401 45.8591 8.61935C45.8591 7.91535 45.6991 7.30201 45.3791 6.77935C45.0698 6.25668 44.6271 5.85135 44.0511 5.56335C43.4751 5.27535 42.7925 5.13135 42.0031 5.13135C41.2245 5.13135 40.5418 5.27535 39.9551 5.56335C39.3791 5.85135 38.9365 6.25668 38.6271 6.77935C38.3178 7.30201 38.1631 7.91535 38.1631 8.61935C38.1631 9.33401 38.3178 9.95268 38.6271 10.4753C38.9365 10.998 39.3791 11.4033 39.9551 11.6913C40.5418 11.9687 41.2245 12.1073 42.0031 12.1073ZM50.8351 11.7713L50.4031 11.6113L56.6271 4.12335H58.3551L50.7391 13.1313H49.3631V0.811347H50.8351V11.7713ZM53.9231 8.63535L54.8671 7.53135L58.6431 13.1313H56.8831L53.9231 8.63535Z" fill="white"/>
</svg>
